{"title":"Rectify.S03E01.Hoorah.1080p.WEB-DL.DD5.1.H.264-NTb","uid":12112873,"size":1807816140,"categoryP":"video","categoryS":"hd___tv_shows","magnet":"?xt=urn:btih:ad692f1219c048ac18e36afea187c43481acd3ed&amp;dn=Rectify.S03E01.Hoorah.1080p.WEB-DL.DD5.1.H.264-NTb&amp;tr=udp%3A%2F%2Ftracker.openbittorrent.com%3A80&amp;tr=udp%3A%2F%2Fopen.demonii.com%3A1337&amp;tr=udp%3A%2F%2Ftracker.coppersurfer.tk%3A6969&amp;tr=udp%3A%2F%2Fexodus.desync.com%3A6969","seeders":0,"leechers":0,"uploader":null,"files":3,"time":1436620115,"description":"Video\nID                                       : 2\nFormat                                   : AVC\nFormat/Info                              : Advanced Video Codec\nFormat profile                           : High@L4\nFormat settings, CABAC                   : Yes\nFormat settings, ReFrames                : 4 frames\nCodec ID                                 : V_MPEG4/ISO/AVC\nDuration                                 : 44mn 17s\nBit rate                                 : 4 949 Kbps\nWidth                                    : 1 916 pixels\nHeight                                   : 1 076 pixels\nDisplay aspect ratio                     : 16:9\nFrame rate mode                          : Constant\nFrame rate                               : 23.976 fps\nColor space                              : YUV\nChroma subsampling                       : 4:2:0\nBit depth                                : 8 bits\nScan type                                : Progressive\nBits/(Pixel*Frame)                       : 0.100\nStream size                              : 1.53 GiB (91%)\nLanguage                                 : English\nDefault                                  : Yes\nForced                                   : No\nColor range                              : Limited\nColor primaries                          : BT.709\nTransfer characteristics                 : BT.709\nMatrix coefficients                      : BT.709\n\nAudio\nID                                       : 3\nFormat                                   : AC-3\nFormat/Info                              : Audio Coding 3\nMode extension                           : CM (complete main)\nFormat settings, Endianness              : Big\nCodec ID                                 : A_AC3\nDuration                                 : 44mn 17s\nBit rate mode                            : Constant\nBit rate                                 : 384 Kbps\nChannel(s)                               : 6 channels\nChannel positions                        : Front: L C R, Side: L R, LFE\nSampling rate                            : 48.0 KHz\nCompression mode                         : Lossy\nStream size                              : 122 MiB (7%)\nLanguage                                 : English\nDefault                                  : Yes\nForced                                   : No\n\nText\nID                                       : 1\nFormat                                   : UTF-8\nCodec ID                                 : S_TEXT/UTF8\nCodec ID/Info                            : UTF-8 Plain Text\nLanguage                                 : English\nDefault                                  : Yes\nForced                                   : No","torrent":{"xt":"urn:btih:ad692f1219c048ac18e36afea187c43481acd3ed","amp;dn":"Rectify.S03E01.Hoorah.1080p.WEB-DL.DD5.1.H.264-NTb","amp;tr":["udp%3A%2F%2Ftracker.openbittorrent.com%3A80","udp%3A%2F%2Fopen.demonii.com%3A1337","udp%3A%2F%2Ftracker.coppersurfer.tk%3A6969","udp%3A%2F%2Fexodus.desync.com%3A6969"],"infoHash":"ad692f1219c048ac18e36afea187c43481acd3ed","infoHashBuffer":{"type":"Buffer","data":[173,105,47,18,25,192,72,172,24,227,106,254,161,135,196,52,129,172,211,237]},"announce":[],"urlList":[]}}